<svg width="375" height="72" viewBox="0 0 375 72" fill="none" xmlns="http://www.w3.org/2000/svg">
<rect width="375" height="72" fill="#DCE9E2"/>
<path d="M321 36H341" stroke="#00856F" stroke-width="2" stroke-linecap="round" stroke-linejoin="round"/>
<path d="M321 28H341" stroke="#00856F" stroke-width="2" stroke-linecap="round" stroke-linejoin="round"/>
<path d="M329 44L341 44" stroke="#00856F" stroke-width="2" stroke-linecap="round" stroke-linejoin="round"/>
<path d="M24 44.088V27.288H29.16C32.12 27.288 34.296 28.04 35.688 29.544C37.096 31.048 37.8 33.112 37.8 35.736C37.8 38.312 37.096 40.352 35.688 41.856C34.296 43.344 32.12 44.088 29.16 44.088H24ZM26.016 42.408H29.112C30.744 42.408 32.04 42.144 33 41.616C33.976 41.072 34.672 40.304 35.088 39.312C35.504 38.304 35.712 37.112 35.712 35.736C35.712 34.328 35.504 33.12 35.088 32.112C34.672 31.104 33.976 30.328 33 29.784C32.04 29.24 30.744 28.968 29.112 28.968H26.016V42.408Z" fill="#212529"/>
<path d="M46.4949 44.376C45.3749 44.376 44.3669 44.12 43.4709 43.608C42.5749 43.096 41.8629 42.376 41.3349 41.448C40.8229 40.504 40.5669 39.4 40.5669 38.136C40.5669 36.872 40.8309 35.776 41.3589 34.848C41.8869 33.904 42.5989 33.176 43.4949 32.664C44.4069 32.152 45.4229 31.896 46.5429 31.896C47.6629 31.896 48.6709 32.152 49.5669 32.664C50.4629 33.176 51.1669 33.904 51.6789 34.848C52.2069 35.776 52.4709 36.872 52.4709 38.136C52.4709 39.4 52.2069 40.504 51.6789 41.448C51.1509 42.376 50.4309 43.096 49.5189 43.608C48.6229 44.12 47.6149 44.376 46.4949 44.376ZM46.4949 42.648C47.1829 42.648 47.8229 42.48 48.4149 42.144C49.0069 41.808 49.4869 41.304 49.8549 40.632C50.2229 39.96 50.4069 39.128 50.4069 38.136C50.4069 37.144 50.2229 36.312 49.8549 35.64C49.5029 34.968 49.0309 34.464 48.4389 34.128C47.8469 33.792 47.2149 33.624 46.5429 33.624C45.8549 33.624 45.2149 33.792 44.6229 34.128C44.0309 34.464 43.5509 34.968 43.1829 35.64C42.8149 36.312 42.6309 37.144 42.6309 38.136C42.6309 39.128 42.8149 39.96 43.1829 40.632C43.5509 41.304 44.0229 41.808 44.5989 42.144C45.1909 42.48 45.8229 42.648 46.4949 42.648Z" fill="#212529"/>
<path d="M61.2261 44.376C60.0901 44.376 59.0661 44.12 58.1541 43.608C57.2581 43.08 56.5461 42.352 56.0181 41.424C55.5061 40.48 55.2501 39.384 55.2501 38.136C55.2501 36.888 55.5061 35.8 56.0181 34.872C56.5461 33.928 57.2581 33.2 58.1541 32.688C59.0661 32.16 60.0901 31.896 61.2261 31.896C62.6341 31.896 63.8181 32.264 64.7781 33C65.7541 33.736 66.3701 34.72 66.6261 35.952H64.5621C64.4021 35.216 64.0101 34.648 63.3861 34.248C62.7621 33.832 62.0341 33.624 61.2021 33.624C60.5301 33.624 59.8981 33.792 59.3061 34.128C58.7141 34.464 58.2341 34.968 57.8661 35.64C57.4981 36.312 57.3141 37.144 57.3141 38.136C57.3141 39.128 57.4981 39.96 57.8661 40.632C58.2341 41.304 58.7141 41.816 59.3061 42.168C59.8981 42.504 60.5301 42.672 61.2021 42.672C62.0341 42.672 62.7621 42.472 63.3861 42.072C64.0101 41.656 64.4021 41.072 64.5621 40.32H66.6261C66.3861 41.52 65.7781 42.496 64.8021 43.248C63.8261 44 62.6341 44.376 61.2261 44.376Z" fill="#212529"/>
<path d="M74.2974 44.088C73.2094 44.088 72.3534 43.824 71.7294 43.296C71.1054 42.768 70.7934 41.816 70.7934 40.44V33.888H68.7294V32.184H70.7934L71.0574 29.328H72.8094V32.184H76.3134V33.888H72.8094V40.44C72.8094 41.192 72.9614 41.704 73.2654 41.976C73.5694 42.232 74.1054 42.36 74.8734 42.36H76.1214V44.088H74.2974Z" fill="#212529"/>
<path d="M84.4506 44.376C83.3306 44.376 82.3226 44.12 81.4266 43.608C80.5306 43.096 79.8186 42.376 79.2906 41.448C78.7786 40.504 78.5226 39.4 78.5226 38.136C78.5226 36.872 78.7866 35.776 79.3146 34.848C79.8426 33.904 80.5546 33.176 81.4506 32.664C82.3626 32.152 83.3786 31.896 84.4986 31.896C85.6186 31.896 86.6266 32.152 87.5226 32.664C88.4186 33.176 89.1226 33.904 89.6346 34.848C90.1626 35.776 90.4266 36.872 90.4266 38.136C90.4266 39.4 90.1626 40.504 89.6346 41.448C89.1066 42.376 88.3866 43.096 87.4746 43.608C86.5786 44.12 85.5706 44.376 84.4506 44.376ZM84.4506 42.648C85.1386 42.648 85.7786 42.48 86.3706 42.144C86.9626 41.808 87.4426 41.304 87.8106 40.632C88.1786 39.96 88.3626 39.128 88.3626 38.136C88.3626 37.144 88.1786 36.312 87.8106 35.64C87.4586 34.968 86.9866 34.464 86.3946 34.128C85.8026 33.792 85.1706 33.624 84.4986 33.624C83.8106 33.624 83.1706 33.792 82.5786 34.128C81.9866 34.464 81.5066 34.968 81.1386 35.64C80.7706 36.312 80.5866 37.144 80.5866 38.136C80.5866 39.128 80.7706 39.96 81.1386 40.632C81.5066 41.304 81.9786 41.808 82.5546 42.144C83.1466 42.48 83.7786 42.648 84.4506 42.648Z" fill="#212529"/>
<path d="M93.7097 44.088V32.184H95.5337L95.7017 34.464C96.0697 33.68 96.6297 33.056 97.3817 32.592C98.1337 32.128 99.0617 31.896 100.166 31.896V34.008H99.6137C98.9097 34.008 98.2617 34.136 97.6697 34.392C97.0777 34.632 96.6057 35.048 96.2537 35.64C95.9017 36.232 95.7257 37.048 95.7257 38.088V44.088H93.7097Z" fill="#212529"/>
<path d="M110.492 44.376C108.796 44.376 107.34 44.016 106.124 43.296C104.908 42.56 103.972 41.544 103.316 40.248C102.66 38.936 102.332 37.424 102.332 35.712C102.332 34 102.66 32.488 103.316 31.176C103.972 29.864 104.908 28.84 106.124 28.104C107.34 27.368 108.796 27 110.492 27C112.508 27 114.156 27.504 115.436 28.512C116.732 29.504 117.54 30.904 117.86 32.712H114.476C114.268 31.8 113.82 31.088 113.132 30.576C112.46 30.048 111.564 29.784 110.444 29.784C108.892 29.784 107.676 30.312 106.796 31.368C105.916 32.424 105.476 33.872 105.476 35.712C105.476 37.552 105.916 39 106.796 40.056C107.676 41.096 108.892 41.616 110.444 41.616C111.564 41.616 112.46 41.376 113.132 40.896C113.82 40.4 114.268 39.72 114.476 38.856H117.86C117.54 40.584 116.732 41.936 115.436 42.912C114.156 43.888 112.508 44.376 110.492 44.376Z" fill="#00856F"/>
<path d="M125.092 44.376C124.068 44.376 123.228 44.216 122.572 43.896C121.916 43.56 121.428 43.12 121.108 42.576C120.788 42.032 120.628 41.432 120.628 40.776C120.628 39.672 121.06 38.776 121.924 38.088C122.788 37.4 124.084 37.056 125.812 37.056H128.836V36.768C128.836 35.952 128.604 35.352 128.14 34.968C127.676 34.584 127.1 34.392 126.412 34.392C125.788 34.392 125.244 34.544 124.78 34.848C124.316 35.136 124.028 35.568 123.916 36.144H120.916C120.996 35.28 121.284 34.528 121.78 33.888C122.292 33.248 122.948 32.76 123.748 32.424C124.548 32.072 125.444 31.896 126.436 31.896C128.132 31.896 129.468 32.32 130.444 33.168C131.42 34.016 131.908 35.216 131.908 36.768V44.088H129.292L129.004 42.168C128.652 42.808 128.156 43.336 127.516 43.752C126.892 44.168 126.084 44.376 125.092 44.376ZM125.788 41.976C126.668 41.976 127.348 41.688 127.828 41.112C128.324 40.536 128.636 39.824 128.764 38.976H126.148C125.332 38.976 124.748 39.128 124.396 39.432C124.044 39.72 123.868 40.08 123.868 40.512C123.868 40.976 124.044 41.336 124.396 41.592C124.748 41.848 125.212 41.976 125.788 41.976Z" fill="#00856F"/>
<path d="M135.319 44.088V32.184H138.055L138.343 34.416C138.775 33.648 139.359 33.04 140.095 32.592C140.847 32.128 141.727 31.896 142.735 31.896V35.136H141.871C141.199 35.136 140.599 35.24 140.071 35.448C139.543 35.656 139.127 36.016 138.823 36.528C138.535 37.04 138.391 37.752 138.391 38.664V44.088H135.319Z" fill="#00856F"/>
<path d="M150.888 44.376C149.688 44.376 148.624 44.12 147.696 43.608C146.768 43.096 146.04 42.376 145.512 41.448C144.984 40.52 144.72 39.448 144.72 38.232C144.72 37 144.976 35.904 145.488 34.944C146.016 33.984 146.736 33.24 147.648 32.712C148.576 32.168 149.664 31.896 150.912 31.896C152.08 31.896 153.112 32.152 154.008 32.664C154.904 33.176 155.6 33.88 156.096 34.776C156.608 35.656 156.864 36.64 156.864 37.728C156.864 37.904 156.856 38.088 156.84 38.28C156.84 38.472 156.832 38.672 156.816 38.88H147.768C147.832 39.808 148.152 40.536 148.728 41.064C149.32 41.592 150.032 41.856 150.864 41.856C151.488 41.856 152.008 41.72 152.424 41.448C152.856 41.16 153.176 40.792 153.384 40.344H156.504C156.28 41.096 155.904 41.784 155.376 42.408C154.864 43.016 154.224 43.496 153.456 43.848C152.704 44.2 151.848 44.376 150.888 44.376ZM150.912 34.392C150.16 34.392 149.496 34.608 148.92 35.04C148.344 35.456 147.976 36.096 147.816 36.96H153.744C153.696 36.176 153.408 35.552 152.88 35.088C152.352 34.624 151.696 34.392 150.912 34.392Z" fill="#00856F"/>
</svg>
